<svg xmlns="http://www.w3.org/2000/svg" width="303.85" height="362.19" viewBox="0 0 303.85 362.19">
  <g id="undraw_woman_mevk" transform="translate(0.731 -5.15)">
    <ellipse id="Ellipse_2" data-name="Ellipse 2" cx="93.17" cy="98.17" rx="93.17" ry="98.17" transform="translate(94.89 5.15)" fill="#6c63ff"/>
    <ellipse id="Ellipse_3" data-name="Ellipse 3" cx="76.85" cy="78.64" rx="76.85" ry="78.64" transform="translate(109.84 31.9)" fill="#6c63ff"/>
    <ellipse id="Ellipse_4" data-name="Ellipse 4" cx="76.85" cy="78.64" rx="76.85" ry="78.64" transform="translate(110.84 28.9)" fill="rgba(10,10,13,0.86)" opacity="0.3"/>
    <rect id="Rectangle_5" data-name="Rectangle 5" width="55.2" height="27.31" rx="4.47" transform="translate(242.403 201.504) rotate(-74.09)" fill="#372929"/>
    <rect id="Rectangle_6" data-name="Rectangle 6" width="5.69" height="24.46" rx="1.99" transform="translate(12.987 189.951) rotate(-26.97)" fill="#ffcfbe"/>
    <rect id="Rectangle_7" data-name="Rectangle 7" width="5.69" height="24.08" rx="1.99" transform="translate(-0.731 200.449) rotate(-60)" fill="#ffcfbe"/>
    <path id="Path_8" data-name="Path 8" d="M299.73,310.82c-2.24,1.27-13.93,8.9,1.1,22.86a5.39,5.39,0,0,0,6.86.37l10.6-7.85a5.39,5.39,0,0,0,1.89-6.08l-3-8.84a8.42,8.42,0,0,0-13.36-3.74l-3.29,2.75a4.572,4.572,0,0,1-.8.53Z" transform="translate(-286.94 -100.84)" fill="#ffcfbe"/>
    <rect id="Rectangle_8" data-name="Rectangle 8" width="5.69" height="15.73" rx="1.99" transform="translate(274.41 176.06)" fill="#ffcfbe"/>
    <path id="Path_9" data-name="Path 9" d="M551.45,289.15s-19.78.34-7.19,25.29l21-4.28,2.23-21a3,3,0,0,0-3.8-3.26Z" transform="translate(-286.94 -100.84)" fill="#ffcfbe"/>
    <rect id="Rectangle_9" data-name="Rectangle 9" width="5.69" height="25.22" rx="1.99" transform="translate(259.625 168.926) rotate(-25.19)" fill="#ffcfbe"/>
    <rect id="Rectangle_10" data-name="Rectangle 10" width="5.69" height="21.81" rx="1.99" transform="translate(255.933 172.017) rotate(-25.19)" fill="#ffcfbe"/>
    <rect id="Rectangle_11" data-name="Rectangle 11" width="5.69" height="20.68" rx="1.99" transform="translate(252.06 177.125) rotate(-25.19)" fill="#ffcfbe"/>
    <rect id="Rectangle_12" data-name="Rectangle 12" width="5.69" height="18.18" rx="1.99" transform="translate(248.892 183.658) rotate(-25.19)" fill="#ffcfbe"/>
    <path id="Path_10" data-name="Path 10" d="M589.58,409.75c.11-.41.21-.83.29-1.25a1.012,1.012,0,0,1,.07-.45,3.778,3.778,0,0,0,.11-.87c.02-.29,0-.41,0-.62v-1.35a4.917,4.917,0,0,0-.05-.82c-.05-.27,0-.33-.07-.5a8.738,8.738,0,0,1-.16-.93v-.14L567.71,305.3c-14.3,1.94-6.7.24-14.3,1.94s0,0-13.34,4.25L545.62,336l-19.85-29.23a14.09,14.09,0,0,0-10.09-6.16,93.7,93.7,0,0,1-14.59-2.7,37.918,37.918,0,0,0-10.4-1.45H457.05a38.006,38.006,0,0,0-10.4,1.451,93.7,93.7,0,0,1-14.587,2.7A14.09,14.09,0,0,0,422,306.77L371,381.9l-49.25-63.79c-11.78,7.57-5.63,2.8-11.78,7.57s0,0-10.6,9.79l61.1,79.13a14,14,0,0,0,9.89,5.39h2.42a7.642,7.642,0,0,0,1.15-.13H374a14.13,14.13,0,0,0,9.6-6.08L420,360.05l4.17,85.81a22.39,22.39,0,0,0,22.33,22.32h54.69a22.39,22.39,0,0,0,22.33-22.32l4.16-85.81L564.2,413.8l.14.18.34.45c.18.25.37.5.57.73l.15.16a14.2,14.2,0,0,0,5.39,3.76,1,1,0,0,1,.16.06c.36.13.72.26,1.08.36l.55.14.74.17c.24.05.49.08.73.11l.62.08h1.95a4.642,4.642,0,0,0,.91-.06l.33-.05c.38-.05.76-.11,1.14-.19h.11c.42-.1.85-.22,1.27-.35h0a13.812,13.812,0,0,0,3.37-1.64,14,14,0,0,0,5.73-7.92Z" transform="translate(-286.94 -100.84)" fill="#6c63ff"/>
    <circle id="Ellipse_5" data-name="Ellipse 5" cx="67.43" cy="67.43" r="67.43" transform="translate(119.51 42.32)" fill="#e53935"/>
    <rect id="Rectangle_13" data-name="Rectangle 13" width="27.51" height="50.99" rx="13.755" transform="translate(174.3 160.81)" fill="#ffe0b2"/>
    <circle id="Ellipse_6" data-name="Ellipse 6" cx="52.15" cy="52.15" r="52.15" transform="translate(134.79 69.29)" fill="#ffe0b2"/>
    <circle id="Ellipse_7" data-name="Ellipse 7" cx="3.15" cy="3.15" r="3.15" transform="translate(166.4 103.9)" fill="#db7657"/>
    <circle id="Ellipse_8" data-name="Ellipse 8" cx="3.15" cy="3.15" r="3.15" transform="translate(201.17 103.9)" fill="#db7657"/>
    <path id="Path_11" data-name="Path 11" d="M486.76,239.83c0,4.21-5.77,7.63-12.89,7.63S461,244,461,239.83,486.76,235.62,486.76,239.83Z" transform="translate(-286.94 -100.84)" fill="#fff"/>
    <path id="Path_12" data-name="Path 12" d="M448.1,165.64s-8.39,42,81.52,33.57l-22.18-36.56Z" transform="translate(-286.94 -100.84)" fill="#e53935"/>
    <ellipse id="Ellipse_9" data-name="Ellipse 9" cx="5.39" cy="9.29" rx="5.39" ry="9.29" transform="matrix(0.942, -0.336, 0.336, 0.942, 126.591, 111.367)" fill="#ffcfbe"/>
    <rect id="Rectangle_14" data-name="Rectangle 14" width="13.04" height="6.29" transform="translate(181.54 103.91)" fill="#6c63ff"/>
    <circle id="Ellipse_10" data-name="Ellipse 10" cx="2.81" cy="2.81" r="2.81" transform="translate(264.48 160.44)" fill="#fff"/>
    <path id="Path_13" data-name="Path 13" d="M471.68,366.68a20.23,20.23,0,1,0-28.54,28.68l28.68,28.53,28.53-28.67a20.228,20.228,0,1,0-28.672-28.542Z" transform="translate(-286.94 -100.84)" fill="#f60a0a"/>
    <ellipse id="Ellipse_11" data-name="Ellipse 11" cx="9.29" cy="5.39" rx="9.29" ry="5.39" transform="matrix(0.34, -0.94, 0.94, 0.34, 232.633, 127.129)" fill="#ffcfbe"/>
    <circle id="Ellipse_12" data-name="Ellipse 12" cx="3.82" cy="3.82" r="3.82" transform="translate(163.64 187.97)" fill="#fff"/>
    <rect id="Rectangle_15" data-name="Rectangle 15" width="3.3" height="39.11" rx="1.15" transform="translate(165.66 191.79)" fill="#fff"/>
    <circle id="Ellipse_13" data-name="Ellipse 13" cx="3.82" cy="3.82" r="3.82" transform="translate(206.74 187.97)" fill="#fff"/>
    <rect id="Rectangle_16" data-name="Rectangle 16" width="3.3" height="32.59" rx="1.15" transform="translate(208.91 191.79)" fill="#fff"/>
    <circle id="Ellipse_14" data-name="Ellipse 14" cx="25.39" cy="25.39" r="25.39" transform="translate(133.14 81.66)" fill="#6c63ff"/>
    <circle id="Ellipse_15" data-name="Ellipse 15" cx="17.79" cy="17.79" r="17.79" transform="translate(140.74 89.26)" fill="#ff03ee" opacity="0.3"/>
    <circle id="Ellipse_16" data-name="Ellipse 16" cx="25.39" cy="25.39" r="25.39" transform="translate(191.9 81.66)" fill="#6c63ff"/>
    <circle id="Ellipse_17" data-name="Ellipse 17" cx="17.79" cy="17.79" r="17.79" transform="translate(199.5 89.26)" fill="rgba(252,7,219,0.94)" opacity="0.3"/>
  </g>
</svg>
